HIERARCHY
ROOT RootJoint
{
    OFFSET   0.000000   0.000000   0.000000
    CHANNELS 6 Xposition Yposition Zposition Xrotation Yrotation Zrotation
    JOINT pelvis_lowerback
    {
        OFFSET   0.000000   0.093605   0.000000
        CHANNELS 3 Xrotation Yrotation Zrotation
        JOINT lowerback_torso
        {
            OFFSET   0.000000   0.100000   0.000000
            CHANNELS 3 Xrotation Yrotation Zrotation
            JOINT torso_head
            {
                OFFSET   0.000000   0.282350   0.000000
                CHANNELS 3 Xrotation Yrotation Zrotation
                End Site
                {
                    OFFSET   0.000000   0.192650   0.000000
                }
            }
            JOINT rTorso_Clavicle
            {
                OFFSET  -0.001000   0.157500   0.000000
                CHANNELS 3 Xrotation Yrotation Zrotation
                JOINT rShoulder
                {
                    OFFSET  -0.117647   0.000000   0.000000
                    CHANNELS 3 Xrotation Yrotation Zrotation
                    JOINT rElbow
                    {
                        OFFSET  -0.245000   0.000000   0.000000
                        CHANNELS 3 Xrotation Yrotation Zrotation
                        JOINT rWrist
                        {
                            OFFSET  -0.240000   0.000000   0.000000
                            CHANNELS 3 Xrotation Yrotation Zrotation
                            End Site
                            {
                                OFFSET  -0.116353  -0.002500   0.000000
                            }
                        }
                    }
                }
            }
            JOINT lTorso_Clavicle
            {
                OFFSET   0.001000   0.157500   0.000000
                CHANNELS 3 Xrotation Yrotation Zrotation
                JOINT lShoulder
                {
                    OFFSET   0.117647   0.000000   0.000000
                    CHANNELS 3 Xrotation Yrotation Zrotation
                    JOINT lElbow
                    {
                        OFFSET   0.245000   0.000000   0.000000
                        CHANNELS 3 Xrotation Yrotation Zrotation
                        JOINT lWrist
                        {
                            OFFSET   0.240000   0.000000   0.000000
                            CHANNELS 3 Xrotation Yrotation Zrotation
                            End Site
                            {
                                OFFSET   0.116353  -0.002500   0.000000
                            }
                        }
                    }
                }
            }
        }
    }
    JOINT rHip
    {
        OFFSET  -0.100000  -0.051395   0.000000
        CHANNELS 3 Xrotation Yrotation Zrotation
        JOINT rKnee
        {
            OFFSET   0.000000  -0.410000   0.000000
            CHANNELS 3 Xrotation Yrotation Zrotation
            JOINT rAnkle
            {
                OFFSET   0.000000  -0.390000   0.000000
                CHANNELS 3 Xrotation Yrotation Zrotation
                JOINT rToeJoint
                {
                    OFFSET   0.000000  -0.050000   0.130000
                    CHANNELS 3 Xrotation Yrotation Zrotation
                    End Site
                    {
                        OFFSET  -0.010000   0.002000   0.060000
                    }
                }
            }
        }
    }
    JOINT lHip
    {
        OFFSET   0.100000  -0.051395   0.000000
        CHANNELS 3 Xrotation Yrotation Zrotation
        JOINT lKnee
        {
            OFFSET   0.000000  -0.410000   0.000000
            CHANNELS 3 Xrotation Yrotation Zrotation
            JOINT lAnkle
            {
                OFFSET   0.000000  -0.390000   0.000000
                CHANNELS 3 Xrotation Yrotation Zrotation
                JOINT lToeJoint
                {
                    OFFSET   0.000000  -0.050000   0.130000
                    CHANNELS 3 Xrotation Yrotation Zrotation
                    End Site
                    {
                        OFFSET   0.010000   0.002000   0.060000
                    }
                }
            }
        }
    }
}
MOTION
Frames: 8
Frame Time:   0.008333
 -2.417312   0.925149   5.088019 -16.522932   7.935751  -2.028435  17.423849  -4.217455   1.141620   0.515955  -0.083769   2.513542   4.155589  -0.418203   2.297320   2.279137 -11.030940   7.904051   5.057136  -1.897502  50.235158  -0.000471  15.750436   0.001494  -0.576270   2.140289   1.311970   1.511646   9.565468  -3.691719  -2.320114   0.791906 -42.356805  -0.000653 -35.154628  -0.001376   0.040872  -3.959451   1.873725 -25.782049  -9.634264 -14.376007  48.864081  -0.008355  -0.000098   2.859161 -13.598402  12.466048  -0.468313  -0.005794   0.003459  23.241995  -6.307359   3.257534   6.241728  -0.000142   0.001328  -6.560765  -8.612624   2.607890  -8.807459  -0.000547  -0.000106
 -2.418076   0.924111   5.094388 -16.649228   8.218874  -1.907361  17.340809  -4.323936   1.041006   0.595329  -0.110772   2.412866   4.252143  -0.511459   2.306769   2.309585 -11.085824   8.039299   5.277273  -1.890299  50.260288  -0.000480  15.395683   0.001740  -0.533745   2.201482   1.309836   1.466430   9.569991  -3.779262  -2.506598   0.755792 -42.058213  -0.000485 -35.137916  -0.001040   0.108468  -4.082548   1.949653 -25.662593  -9.701836 -14.648782  46.803343  -0.009250  -0.001242   3.425573 -13.435705  12.806006  -0.271066  -0.005570   0.003701  23.657790  -6.226710   3.379985   6.508860  -0.000191   0.001918  -7.097031  -8.974340   2.497028  -8.808115  -0.000438  -0.000085
 -2.418906   0.922933   5.100831 -16.768852   8.479694  -1.769732  17.239963  -4.416140   0.912966   0.668455  -0.134599   2.304365   4.343189  -0.598981   2.311845   2.354122 -11.150148   8.171109   5.496719  -1.894507  50.285186  -0.000422  15.055220   0.001856  -0.489464   2.213933   1.310902   1.425981   9.584915  -3.846664  -2.679756   0.729351 -41.763100  -0.000339 -35.116900  -0.000753   0.171988  -4.177409   2.061389 -25.533663  -9.751422 -14.926171  44.773408  -0.009839  -0.002185   3.951049 -13.279094  13.121278  -0.070913  -0.005349   0.003910  24.066311  -6.145490   3.482423   6.786825  -0.000236   0.002394  -7.654722  -9.316625   2.418752  -8.862204  -0.000350  -0.000069
 -2.419799   0.921664   5.107333 -16.882782   8.715816  -1.623281  17.132116  -4.498225   0.771254   0.732182  -0.154383   2.190421   4.426703  -0.680433   2.313657   2.404236 -11.218463   8.296743   5.708532  -1.904461  50.308344  -0.000331  14.733636   0.001859  -0.446286   2.201040   1.309613   1.392390   9.608540  -3.904370  -2.837866   0.710758 -41.480533  -0.000219 -35.094150  -0.000517   0.232398  -4.251767   2.190972 -25.417950  -9.790952 -15.201283  42.853584  -0.009920  -0.002785   4.439115 -13.130004  13.413341   0.111396  -0.005043   0.003960  24.476879  -6.066664   3.575253   7.057682  -0.000284   0.002704  -8.217520  -9.636709   2.333214  -8.915740  -0.000280  -0.000057
 -2.420751   0.920345   5.113880 -16.989846   8.932161  -1.473574  17.020871  -4.572931   0.624859   0.787097  -0.171289   2.074437   4.503338  -0.756457   2.313676   2.455652 -11.287097   8.415325   5.909910  -1.917150  50.329333  -0.000233  14.431485   0.001792  -0.404705   2.176067   1.304705   1.364828   9.637218  -3.958583  -2.982071   0.697577 -41.214730  -0.000125 -35.070482  -0.000328   0.289952  -4.310192   2.324971 -25.317028  -9.824612 -15.467547  41.056490  -0.009605  -0.003149   4.893213 -12.988291  13.684148   0.276848  -0.004682   0.003891  24.886789  -5.990299   3.664709   7.321082  -0.000335   0.002889  -8.769577  -9.935766   2.242763  -8.988538  -0.000224  -0.000048
 -2.421764   0.919000   5.120462 -17.088458   9.132552  -1.323363  16.907837  -4.641528   0.478238   0.833747  -0.186129   1.958652   4.573783  -0.827483   2.312808   2.506156 -11.354058   8.526648   6.099774  -1.930890  50.348358  -0.000142  14.148466   0.001685  -0.364833   2.146009   1.296925   1.342137   9.668298  -4.011845  -3.113880   0.687909 -40.967108  -0.000053 -35.046646  -0.000179   0.344815  -4.356738   2.455699 -25.229407  -9.854103 -15.721315  39.379714  -0.009023  -0.003371   5.315960 -12.853766  13.935376   0.426901  -0.004294   0.003740  25.292396  -5.916741   3.753926   7.578343  -0.000386   0.002984  -9.301072 -10.215319   2.149270  -9.093520  -0.000178  -0.000043
 -2.422833   0.917644   5.127075 -17.177160   9.319598  -1.173985  16.793895  -4.704711   0.333766   0.872583  -0.199351   1.844400   4.638587  -0.893850   2.311501   2.554542 -11.418250   8.630730   6.277851  -1.944702  50.365645  -0.000065  13.883895   0.001559  -0.326676   2.114771   1.287233   1.323299   9.700104  -4.064909  -3.234699   0.680497 -40.737549  -0.000000 -35.023199  -0.000064   0.397146  -4.394744   2.579496 -25.153334  -9.880341 -15.960886  37.817152  -0.008276  -0.003501   5.709633 -12.726223  14.168531   0.562934  -0.003899   0.003536  25.690877  -5.846222   3.844351   7.830320  -0.000438   0.003017  -9.806487 -10.476812   2.054104  -9.237695  -0.000142  -0.000042
 -2.423993   0.916017   5.133715 -17.282076   9.518074  -1.034931  16.664167  -4.739593   0.180417   0.975992  -0.227660   1.743870   4.706290  -0.996233   2.326546   2.565687 -11.520878   8.735961   6.453815  -1.974234  50.337595   0.000155  13.587910   0.001390  -0.296485   2.154313   1.304579   1.285987   9.726060  -4.124596  -3.425568   0.693888 -40.465496   0.000319 -34.892849   0.000479   0.422330  -4.511766   2.682549 -25.021166  -9.942310 -16.200689  36.137860  -0.007835  -0.003459   6.219269 -12.555739  14.370238   0.731377  -0.003625   0.003533  26.032444  -5.771083   3.958139   8.254778  -0.000600   0.003533 -10.488313 -10.748939   1.918862  -9.271624  -0.000117  -0.000038
